# Blender 4.2.19 LTS
# www.blender.org
o Hand
v 0.000000 2.583495 -7.969787
v 0.000000 2.503048 -7.970656
v 0.000000 2.422904 -7.963638
v 0.000000 2.343833 -7.948800
v 0.000000 2.266598 -7.926281
v 0.000000 2.191942 -7.896298
v 0.000000 2.120584 -7.859146
v 0.000000 2.053211 -7.815176
v 0.000000 1.990473 -7.764813
v 0.000000 1.932972 -7.708546
v 0.000000 1.881264 -7.646912
v 0.000000 1.835847 -7.580508
v 0.000000 1.797156 -7.509973
v 0.000000 1.765566 -7.435981
v 0.000000 1.741380 -7.359252
v 0.000000 1.724832 -7.280521
v 0.000000 1.716080 -7.200550
v 0.000000 1.715208 -7.120100
v 0.000000 1.722228 -7.039958
v 0.000000 1.737067 -6.960887
v 0.000000 1.759587 -6.883654
v 0.000000 1.789567 -6.808995
v 0.000000 1.826720 -6.737638
v 0.000000 1.870690 -6.670265
v 0.000000 1.921052 -6.607527
v 0.000000 1.977319 -6.550026
v 0.000000 2.038954 -6.498319
v 0.000000 2.105357 -6.452901
v 0.000000 2.175894 -6.414210
v 0.000000 2.249885 -6.382620
v 0.000000 2.326613 -6.358435
v 0.000000 2.405344 -6.341887
v 0.000000 2.485318 -6.333135
v 0.000000 2.565764 -6.332263
v 0.000000 2.645910 -6.339280
v 0.000000 2.724980 -6.354120
v 0.000000 2.802215 -6.376640
v 0.000000 2.876871 -6.406620
v 0.000000 2.948230 -6.443775
v 0.000000 3.015602 -6.487744
v 0.000000 3.078341 -6.538105
v 0.000000 3.135840 -6.594374
v 0.000000 3.187549 -6.656006
v 0.000000 3.232965 -6.722411
v 0.000000 3.271657 -6.792950
v 0.000000 3.303246 -6.866939
v 0.000000 3.327433 -6.943666
v 0.000000 3.343982 -7.022397
v 0.000000 3.352734 -7.102372
v 0.000000 3.353604 -7.182817
v 0.000000 3.346585 -7.262959
v 0.000000 3.331747 -7.342033
v 0.000000 3.309227 -7.419268
v 0.000000 3.279246 -7.493924
v 0.000000 3.242093 -7.565282
v 0.000000 3.198123 -7.632653
v 0.000000 3.147761 -7.695393
v 0.000000 3.091494 -7.752892
v 0.000000 3.029859 -7.804602
v 0.000000 2.963455 -7.850019
v 0.000000 2.892918 -7.888710
v 0.000000 2.818928 -7.920299
v 0.000000 2.742199 -7.944485
v 0.000000 2.663468 -7.961035
v 0.000000 2.302065 -3.278219
v 0.000000 2.221619 -3.279090
v 0.000000 2.141475 -3.272072
v 0.000000 2.062404 -3.257232
v 0.000000 1.985169 -3.234713
v 0.000000 1.910513 -3.204732
v 0.000000 1.839155 -3.167578
v 0.000000 1.771782 -3.123609
v 0.000000 1.709044 -3.073248
v 0.000000 1.651543 -3.016979
v 0.000000 1.599836 -2.955346
v 0.000000 1.554418 -2.888941
v 0.000000 1.515727 -2.818404
v 0.000000 1.484137 -2.744415
v 0.000000 1.459951 -2.667686
v 0.000000 1.443403 -2.588954
v 0.000000 1.434650 -2.508981
v 0.000000 1.433779 -2.428535
v 0.000000 1.440798 -2.348390
v 0.000000 1.455638 -2.269320
v 0.000000 1.478157 -2.192085
v 0.000000 1.508137 -2.117428
v 0.000000 1.545291 -2.046071
v 0.000000 1.589261 -1.978698
v 0.000000 1.639622 -1.915960
v 0.000000 1.695890 -1.858459
v 0.000000 1.757524 -1.806751
v 0.000000 1.823928 -1.761333
v 0.000000 1.894465 -1.722642
v 0.000000 1.968455 -1.691052
v 0.000000 2.045184 -1.666867
v 0.000000 2.123915 -1.650318
v 0.000000 2.203889 -1.641566
v 0.000000 2.284335 -1.640695
v 0.000000 2.364480 -1.647714
v 0.000000 2.443550 -1.662553
v 0.000000 2.520785 -1.685072
v 0.000000 2.595441 -1.715053
v 0.000000 2.666799 -1.752207
v 0.000000 2.734172 -1.796176
v 0.000000 2.796911 -1.846538
v 0.000000 2.854411 -1.902806
v 0.000000 2.906119 -1.964440
v 0.000000 2.951537 -2.030844
v 0.000000 2.990227 -2.101381
v 0.000000 3.021817 -2.175371
v 0.000000 3.046003 -2.252100
v 0.000000 3.062552 -2.330830
v 0.000000 3.071304 -2.410804
v 0.000000 3.072175 -2.491250
v 0.000000 3.065156 -2.571395
v 0.000000 3.050316 -2.650465
v 0.000000 3.027798 -2.727701
v 0.000000 2.997817 -2.802357
v 0.000000 2.960663 -2.873714
v 0.000000 2.916693 -2.941087
v 0.000000 2.866332 -3.003826
v 0.000000 2.810064 -3.061326
v 0.000000 2.748430 -3.113034
v 0.000000 2.682026 -3.158453
v 0.000000 2.611489 -3.197143
v 0.000000 2.537499 -3.228733
v 0.000000 2.460770 -3.252918
v 0.000000 2.382039 -3.269467
v -0.500000 2.583495 -7.969787
v -0.500000 2.503048 -7.970656
v -0.500000 2.422904 -7.963638
v -0.500000 2.343833 -7.948800
v -0.500000 2.266598 -7.926281
v -0.500000 2.191942 -7.896298
v -0.500000 2.120584 -7.859146
v -0.500000 2.053211 -7.815176
v -0.500000 1.990473 -7.764813
v -0.500000 1.932973 -7.708546
v -0.500000 1.881265 -7.646913
v -0.500000 1.835847 -7.580508
v -0.500000 1.797156 -7.509973
v -0.500000 1.765566 -7.435984
v -0.500000 1.741380 -7.359253
v -0.500000 1.724832 -7.280521
v -0.500000 1.716080 -7.200550
v -0.500000 1.715208 -7.120100
v -0.500000 1.722228 -7.039958
v -0.500000 1.737067 -6.960887
v -0.500000 1.759587 -6.883654
v -0.500000 1.789567 -6.808995
v -0.500000 1.826720 -6.737638
v -0.500000 1.870690 -6.670265
v -0.500000 1.921052 -6.607527
v -0.500000 1.977319 -6.550026
v -0.500000 2.038954 -6.498319
v -0.500000 2.105359 -6.452901
v -0.500000 2.175894 -6.414210
v -0.500000 2.249885 -6.382620
v -0.500000 2.326613 -6.358435
v -0.500000 2.405344 -6.341887
v -0.500000 2.485318 -6.333135
v -0.500000 2.565764 -6.332263
v -0.500000 2.645910 -6.339281
v -0.500000 2.724980 -6.354120
v -0.500000 2.802216 -6.376640
v -0.500000 2.876872 -6.406620
v -0.500000 2.948230 -6.443775
v -0.500000 3.015602 -6.487744
v -0.500000 3.078341 -6.538105
v -0.500000 3.135840 -6.594374
v -0.500000 3.187549 -6.656007
v -0.500000 3.232966 -6.722411
v -0.500000 3.271657 -6.792950
v -0.500000 3.303246 -6.866939
v -0.500000 3.327433 -6.943666
v -0.500000 3.343982 -7.022397
v -0.500000 3.352734 -7.102372
v -0.500000 3.353604 -7.182817
v -0.500000 3.346585 -7.262959
v -0.500000 3.331747 -7.342033
v -0.500000 3.309227 -7.419268
v -0.500000 3.279246 -7.493924
v -0.500000 3.242093 -7.565282
v -0.500000 3.198123 -7.632654
v -0.500000 3.147761 -7.695393
v -0.500000 3.091494 -7.752892
v -0.500000 3.029860 -7.804602
v -0.500000 2.963455 -7.850019
v -0.500000 2.892918 -7.888710
v -0.500000 2.818928 -7.920299
v -0.500000 2.742199 -7.944486
v -0.500000 2.663468 -7.961035
v -0.500000 2.302066 -3.278219
v -0.500000 2.221619 -3.279090
v -0.500000 2.141475 -3.272072
v -0.500000 2.062404 -3.257232
v -0.500000 1.985169 -3.234713
v -0.500000 1.910513 -3.204732
v -0.500000 1.839155 -3.167578
v -0.500000 1.771782 -3.123609
v -0.500000 1.709044 -3.073248
v -0.500000 1.651544 -3.016979
v -0.500000 1.599836 -2.955346
v -0.500000 1.554418 -2.888941
v -0.500000 1.515727 -2.818404
v -0.500000 1.484137 -2.744415
v -0.500000 1.459951 -2.667686
v -0.500000 1.443403 -2.588954
v -0.500000 1.434651 -2.508981
v -0.500000 1.433780 -2.428535
v -0.500000 1.440798 -2.348390
v -0.500000 1.455638 -2.269320
v -0.500000 1.478157 -2.192085
v -0.500000 1.508137 -2.117428
v -0.500000 1.545291 -2.046071
v -0.500000 1.589261 -1.978698
v -0.500000 1.639622 -1.915960
v -0.500000 1.695890 -1.858459
v -0.500000 1.757524 -1.806751
v -0.500000 1.823929 -1.761333
v -0.500000 1.894465 -1.722642
v -0.500000 1.968455 -1.691052
v -0.500000 2.045184 -1.666867
v -0.500000 2.123915 -1.650318
v -0.500000 2.203889 -1.641566
v -0.500000 2.284335 -1.640695
v -0.500000 2.364480 -1.647714
v -0.500000 2.443550 -1.662553
v -0.500000 2.520785 -1.685072
v -0.500000 2.595441 -1.715053
v -0.500000 2.666800 -1.752207
v -0.500000 2.734172 -1.796176
v -0.500000 2.796911 -1.846538
v -0.500000 2.854411 -1.902806
v -0.500000 2.906119 -1.964440
v -0.500000 2.951537 -2.030844
v -0.500000 2.990227 -2.101381
v -0.500000 3.021817 -2.175371
v -0.500000 3.046003 -2.252100
v -0.500000 3.062552 -2.330830
v -0.500000 3.071304 -2.410804
v -0.500000 3.072175 -2.491250
v -0.500000 3.065156 -2.571395
v -0.500000 3.050316 -2.650465
v -0.500000 3.027798 -2.727701
v -0.500000 2.997817 -2.802357
v -0.500000 2.960663 -2.873714
v -0.500000 2.916694 -2.941087
v -0.500000 2.866332 -3.003826
v -0.500000 2.810064 -3.061326
v -0.500000 2.748430 -3.113034
v -0.500000 2.682026 -3.158453
v -0.500000 2.611489 -3.197143
v -0.500000 2.537499 -3.228733
v -0.500000 2.460770 -3.252918
v -0.500000 2.382039 -3.269467
vn 1.0000 -0.0000 -0.0000
vn -1.0000 -0.0000 -0.0000
vn -0.0000 -0.6260 -0.7798
vn -0.0000 0.9999 0.0108
vn -0.0000 -0.8374 0.5465
vn -0.0000 0.3926 -0.9197
vn -0.0000 -0.6994 -0.7147
vn -0.0000 0.9962 -0.0872
vn -0.0000 -0.7798 0.6260
vn -0.0000 0.3006 -0.9537
vn -0.0000 -0.7661 -0.6427
vn -0.0000 0.9828 -0.1845
vn -0.0000 -0.7147 0.6994
vn -0.0000 0.2057 -0.9786
vn -0.0000 -0.8254 -0.5645
vn -0.0000 0.9600 -0.2799
vn -0.0000 -0.6427 0.7661
vn -0.0000 0.1088 -0.9941
vn -0.0000 -0.8768 -0.4809
vn -0.0000 0.9280 -0.3727
vn -0.0000 -0.5645 0.8254
vn -0.0000 -0.9197 -0.3927
vn -0.0000 0.8870 -0.4618
vn -0.0000 -0.4809 0.8768
vn -0.0000 -0.9537 -0.3006
vn -0.0000 0.8374 -0.5465
vn -0.0000 -0.3927 0.9197
vn -0.0000 -0.9786 -0.2057
vn -0.0000 -0.3006 0.9537
vn -0.0000 0.7661 0.6427
vn -0.0000 -0.9941 -0.1088
vn -0.0000 -0.2057 0.9786
vn -0.0000 0.8254 0.5645
vn -0.0000 -0.9999 -0.0108
vn -0.0000 -0.1088 0.9941
vn -0.0000 0.8768 0.4809
vn -0.0000 -0.9962 0.0872
vn -0.0000 -0.0108 0.9999
vn -0.0000 0.9197 0.3927
vn -0.0000 -0.9828 0.1845
vn -0.0000 0.0872 0.9962
vn -0.0000 0.9537 0.3006
vn -0.0000 -0.9600 0.2799
vn -0.0000 0.1844 0.9828
vn -0.0000 0.9786 0.2057
vn -0.0000 -0.9280 0.3726
vn -0.0000 0.2799 0.9600
vn -0.0000 0.9941 0.1088
vn -0.0000 -0.8870 0.4618
vn -0.0000 0.3727 0.9280
vn -0.0000 0.4618 0.8870
vn -0.0000 -0.9989 -0.0470
vn -0.0000 0.5465 0.8374
vn -0.0000 0.9828 -0.1844
vn -0.0000 0.9982 0.0599
vn -0.0000 0.6260 0.7798
vn -0.0000 0.6994 0.7147
vn -0.0000 0.0108 -0.9999
vn -0.0000 -0.0872 -0.9962
vn -0.0000 -0.1844 -0.9828
vn -0.0000 0.7798 -0.6260
vn -0.0000 -0.2799 -0.9600
vn -0.0000 0.7147 -0.6994
vn -0.0000 -0.3727 -0.9280
vn -0.0000 0.6427 -0.7661
vn -0.0000 -0.4618 -0.8870
vn -0.0000 0.5645 -0.8254
vn -0.0000 -0.5465 -0.8374
vn -0.0000 0.4809 -0.8768
vt 0.000000 0.000000
s 0
f 2/1/1 1/1/1 64/1/1 63/1/1 62/1/1 61/1/1 60/1/1 59/1/1 58/1/1 57/1/1 56/1/1 55/1/1 54/1/1 53/1/1 52/1/1 51/1/1 50/1/1 49/1/1 48/1/1 47/1/1 46/1/1 45/1/1 44/1/1 43/1/1 42/1/1 41/1/1 40/1/1 39/1/1 38/1/1 37/1/1 36/1/1 35/1/1 34/1/1 33/1/1 32/1/1 31/1/1 30/1/1 29/1/1 28/1/1 27/1/1 26/1/1 25/1/1 24/1/1 23/1/1 22/1/1 21/1/1 20/1/1 19/1/1 18/1/1 17/1/1 16/1/1 15/1/1 14/1/1 13/1/1 12/1/1 11/1/1 10/1/1 9/1/1 8/1/1 7/1/1 6/1/1 5/1/1 4/1/1 3/1/1
f 66/1/1 65/1/1 128/1/1 127/1/1 126/1/1 125/1/1 124/1/1 123/1/1 122/1/1 121/1/1 120/1/1 119/1/1 118/1/1 117/1/1 116/1/1 115/1/1 114/1/1 113/1/1 112/1/1 111/1/1 110/1/1 109/1/1 108/1/1 107/1/1 106/1/1 105/1/1 104/1/1 103/1/1 102/1/1 101/1/1 100/1/1 99/1/1 98/1/1 97/1/1 96/1/1 95/1/1 94/1/1 93/1/1 92/1/1 91/1/1 90/1/1 89/1/1 88/1/1 87/1/1 86/1/1 85/1/1 84/1/1 83/1/1 82/1/1 81/1/1 80/1/1 79/1/1 78/1/1 77/1/1 76/1/1 75/1/1 74/1/1 73/1/1 72/1/1 71/1/1 70/1/1 69/1/1 68/1/1 67/1/1
f 120/1/1 121/1/1 122/1/1 123/1/1 124/1/1 125/1/1 126/1/1 127/1/1 128/1/1 65/1/1 66/1/1 67/1/1 68/1/1 69/1/1 70/1/1 71/1/1 72/1/1 73/1/1 74/1/1 23/1/1 24/1/1 25/1/1 26/1/1 27/1/1 28/1/1 29/1/1 30/1/1 31/1/1 32/1/1 33/1/1 34/1/1 35/1/1 36/1/1 37/1/1 38/1/1 39/1/1 40/1/1 41/1/1 42/1/1
f 130/1/2 131/1/2 132/1/2 133/1/2 134/1/2 135/1/2 136/1/2 137/1/2 138/1/2 139/1/2 140/1/2 141/1/2 142/1/2 143/1/2 144/1/2 145/1/2 146/1/2 147/1/2 148/1/2 149/1/2 150/1/2 151/1/2 152/1/2 153/1/2 154/1/2 155/1/2 156/1/2 157/1/2 158/1/2 159/1/2 160/1/2 161/1/2 162/1/2 163/1/2 164/1/2 165/1/2 166/1/2 167/1/2 168/1/2 169/1/2 170/1/2 171/1/2 172/1/2 173/1/2 174/1/2 175/1/2 176/1/2 177/1/2 178/1/2 179/1/2 180/1/2 181/1/2 182/1/2 183/1/2 184/1/2 185/1/2 186/1/2 187/1/2 188/1/2 189/1/2 190/1/2 191/1/2 192/1/2 129/1/2
f 194/1/2 195/1/2 196/1/2 197/1/2 198/1/2 199/1/2 200/1/2 201/1/2 202/1/2 203/1/2 204/1/2 205/1/2 206/1/2 207/1/2 208/1/2 209/1/2 210/1/2 211/1/2 212/1/2 213/1/2 214/1/2 215/1/2 216/1/2 217/1/2 218/1/2 219/1/2 220/1/2 221/1/2 222/1/2 223/1/2 224/1/2 225/1/2 226/1/2 227/1/2 228/1/2 229/1/2 230/1/2 231/1/2 232/1/2 233/1/2 234/1/2 235/1/2 236/1/2 237/1/2 238/1/2 239/1/2 240/1/2 241/1/2 242/1/2 243/1/2 244/1/2 245/1/2 246/1/2 247/1/2 248/1/2 249/1/2 250/1/2 251/1/2 252/1/2 253/1/2 254/1/2 255/1/2 256/1/2 193/1/2
f 248/1/2 170/1/2 169/1/2 168/1/2 167/1/2 166/1/2 165/1/2 164/1/2 163/1/2 162/1/2 161/1/2 160/1/2 159/1/2 158/1/2 157/1/2 156/1/2 155/1/2 154/1/2 153/1/2 152/1/2 151/1/2 202/1/2 201/1/2 200/1/2 199/1/2 198/1/2 197/1/2 196/1/2 195/1/2 194/1/2 193/1/2 256/1/2 255/1/2 254/1/2 253/1/2 252/1/2 251/1/2 250/1/2 249/1/2
f 8/1/3 9/1/3 137/1/3 136/1/3
f 113/1/4 114/1/4 242/1/4 241/1/4
f 87/1/5 88/1/5 216/1/5 215/1/5
f 61/1/6 62/1/6 190/1/6 189/1/6
f 9/1/7 10/1/7 138/1/7 137/1/7
f 114/1/8 115/1/8 243/1/8 242/1/8
f 88/1/9 89/1/9 217/1/9 216/1/9
f 62/1/10 63/1/10 191/1/10 190/1/10
f 10/1/11 11/1/11 139/1/11 138/1/11
f 115/1/12 116/1/12 244/1/12 243/1/12
f 89/1/13 90/1/13 218/1/13 217/1/13
f 63/1/14 64/1/14 192/1/14 191/1/14
f 11/1/15 12/1/15 140/1/15 139/1/15
f 116/1/16 117/1/16 245/1/16 244/1/16
f 90/1/17 91/1/17 219/1/17 218/1/17
f 64/1/18 1/1/18 129/1/18 192/1/18
f 12/1/19 13/1/19 141/1/19 140/1/19
f 117/1/20 118/1/20 246/1/20 245/1/20
f 91/1/21 92/1/21 220/1/21 219/1/21
f 13/1/22 14/1/22 142/1/22 141/1/22
f 118/1/23 119/1/23 247/1/23 246/1/23
f 92/1/24 93/1/24 221/1/24 220/1/24
f 14/1/25 15/1/25 143/1/25 142/1/25
f 119/1/26 120/1/26 248/1/26 247/1/26
f 93/1/27 94/1/27 222/1/27 221/1/27
f 15/1/28 16/1/28 144/1/28 143/1/28
f 94/1/29 95/1/29 223/1/29 222/1/29
f 42/1/30 43/1/30 171/1/30 170/1/30
f 16/1/31 17/1/31 145/1/31 144/1/31
f 95/1/32 96/1/32 224/1/32 223/1/32
f 43/1/33 44/1/33 172/1/33 171/1/33
f 17/1/34 18/1/34 146/1/34 145/1/34
f 96/1/35 97/1/35 225/1/35 224/1/35
f 44/1/36 45/1/36 173/1/36 172/1/36
f 18/1/37 19/1/37 147/1/37 146/1/37
f 97/1/38 98/1/38 226/1/38 225/1/38
f 45/1/39 46/1/39 174/1/39 173/1/39
f 19/1/40 20/1/40 148/1/40 147/1/40
f 98/1/41 99/1/41 227/1/41 226/1/41
f 46/1/42 47/1/42 175/1/42 174/1/42
f 20/1/43 21/1/43 149/1/43 148/1/43
f 99/1/44 100/1/44 228/1/44 227/1/44
f 47/1/45 48/1/45 176/1/45 175/1/45
f 21/1/46 22/1/46 150/1/46 149/1/46
f 100/1/47 101/1/47 229/1/47 228/1/47
f 74/1/11 75/1/11 203/1/11 202/1/11
f 48/1/48 49/1/48 177/1/48 176/1/48
f 22/1/49 23/1/49 151/1/49 150/1/49
f 101/1/50 102/1/50 230/1/50 229/1/50
f 75/1/15 76/1/15 204/1/15 203/1/15
f 49/1/4 50/1/4 178/1/4 177/1/4
f 102/1/51 103/1/51 231/1/51 230/1/51
f 76/1/19 77/1/19 205/1/19 204/1/19
f 50/1/8 51/1/8 179/1/8 178/1/8
f 23/1/52 74/1/52 202/1/52 151/1/52
f 103/1/53 104/1/53 232/1/53 231/1/53
f 77/1/22 78/1/22 206/1/22 205/1/22
f 51/1/54 52/1/54 180/1/54 179/1/54
f 120/1/55 42/1/55 170/1/55 248/1/55
f 104/1/56 105/1/56 233/1/56 232/1/56
f 78/1/25 79/1/25 207/1/25 206/1/25
f 52/1/16 53/1/16 181/1/16 180/1/16
f 105/1/57 106/1/57 234/1/57 233/1/57
f 79/1/28 80/1/28 208/1/28 207/1/28
f 53/1/20 54/1/20 182/1/20 181/1/20
f 1/1/58 2/1/58 130/1/58 129/1/58
f 106/1/30 107/1/30 235/1/30 234/1/30
f 80/1/31 81/1/31 209/1/31 208/1/31
f 54/1/23 55/1/23 183/1/23 182/1/23
f 2/1/59 3/1/59 131/1/59 130/1/59
f 107/1/33 108/1/33 236/1/33 235/1/33
f 81/1/34 82/1/34 210/1/34 209/1/34
f 55/1/26 56/1/26 184/1/26 183/1/26
f 3/1/60 4/1/60 132/1/60 131/1/60
f 108/1/36 109/1/36 237/1/36 236/1/36
f 82/1/37 83/1/37 211/1/37 210/1/37
f 56/1/61 57/1/61 185/1/61 184/1/61
f 4/1/62 5/1/62 133/1/62 132/1/62
f 109/1/39 110/1/39 238/1/39 237/1/39
f 83/1/40 84/1/40 212/1/40 211/1/40
f 57/1/63 58/1/63 186/1/63 185/1/63
f 5/1/64 6/1/64 134/1/64 133/1/64
f 110/1/42 111/1/42 239/1/42 238/1/42
f 84/1/43 85/1/43 213/1/43 212/1/43
f 58/1/65 59/1/65 187/1/65 186/1/65
f 6/1/66 7/1/66 135/1/66 134/1/66
f 111/1/45 112/1/45 240/1/45 239/1/45
f 85/1/46 86/1/46 214/1/46 213/1/46
f 59/1/67 60/1/67 188/1/67 187/1/67
f 7/1/68 8/1/68 136/1/68 135/1/68
f 112/1/48 113/1/48 241/1/48 240/1/48
f 86/1/49 87/1/49 215/1/49 214/1/49
f 60/1/69 61/1/69 189/1/69 188/1/69
